# xmcd CD database file
#
# Track frame offsets:
#	150
#	12867
#	27392
#	44202
#	58763
#	74848
#	87434
#	111116
#	125873
#	139889
#	156469
#	177854
#	192504
#	210216
#	229907
#	245554
#	268309
#	286116
#	303487
#	325093
#
# Disc length: 4559 seconds
#
# Revision: 0
# Processed by: cddbd v1.5.1PL0 Copyright (c) Steve Scherf et al.
# Submitted via: CDex 1.51
#
DISCID=3c11cd14
DTITLE=Various Artist - Do Brazil Party
DYEAR=1900
DGENRE=Salsa
TTITLE0=Kaleidoscopio - Voce Me Apareceu
TTITLE1=Booka - Mutoto
TTITLE2=Gilberto Gil - Toda Menina Baiana
TTITLE3=O Karaiva - Xote Das Meninas (Ela So Quer)
TTITLE4=T-Rio - (Choopeta) Mamae Eu Quero
TTITLE5=Bellini - Samba De Janeiro
TTITLE6=Salome de Bahia - Outro Lugar
TTITLE7=Janeiro Verde - Brazilia Carnaval
TTITLE8=Kaoma - La Lambada
TTITLE9=Chico and Roberta - Frente A Frente
TTITLE10=Antonio Carlos Jobim - The Girl From Ipanema
TTITLE11=Jorge ben Jor - Mas Que Nada
TTITLE12=Salome de Bahia - Copacabana
TTITLE13=Bossacucanova - Essa Moca Ta Diferente
TTITLE14=Trio Mocoto - Voltei Amor
TTITLE15=Cibelle - Luisas
TTITLE16=Bebel Gilberto - River Song
TTITLE17=The Ritchie Family - Brazil
TTITLE18=Salome de Bahia - Taj Mahal
TTITLE19=Kaoma - Danca Tago Mago
EXTD=
EXTT0=
EXTT1=
EXTT2=
EXTT3=
EXTT4=
EXTT5=
EXTT6=
EXTT7=
EXTT8=
EXTT9=
EXTT10=
EXTT11=
EXTT12=
EXTT13=
EXTT14=
EXTT15=
EXTT16=
EXTT17=
EXTT18=
EXTT19=
PLAYORDER=
